<svg xmlns="http://www.w3.org/2000/svg" viewBox="0 0 512 512" fill="none">
  <title>Qai maskable app icon</title>
  <rect width="512" height="512" fill="#F1EDF2"/>
  <g transform="translate(68 82) scale(2.7)">
    <path d="M64 9 102 31 83 43 64 33Z" fill="#8A4B67"/><path d="m102 31 1 43-20-11V43Z" fill="#75435F"/><path d="m103 74-19 12-20-11 19-12Z" fill="#63486F"/><path d="M64 75 84 86 64 98 26 76l20-12Z" fill="#536B9E"/><path d="M26 32 46 44v20L26 76Z" fill="#4E73A9"/><path d="M64 9v24L46 44 26 32Z" fill="#6B557D"/><path d="m55 58 13-8 46 40-22 29-13-24 12-10Z" fill="#82445F"/><path d="m55 58 36 27-12 10Z" fill="#70496D"/><path d="m79 95 13 24 22-29-23-5Z" fill="#4E6D9F"/>
  </g>
</svg>
